<mxfile host="app.diagrams.net" modified="2024-06-23T13:16:13.864Z" agent="Mozilla/5.0 (Windows NT 10.0; Win64; x64) AppleWebKit/537.36 (KHTML, like Gecko) Chrome/126.0.0.0 Safari/537.36" etag="39p_uV6w86zmZC0_SEU7" version="24.6.2" type="device">
  <diagram name="Page-1" id="4in450FujL5WbmtTzsgt">
    <mxGraphModel dx="1179" dy="484" grid="1" gridSize="10" guides="1" tooltips="1" connect="1" arrows="1" fold="1" page="1" pageScale="1" pageWidth="850" pageHeight="1100" math="0" shadow="0">
      <root>
        <mxCell id="0" />
        <mxCell id="1" parent="0" />
        <mxCell id="X6_SMgSs1xqBF5ooyhke-20" style="edgeStyle=orthogonalEdgeStyle;rounded=0;orthogonalLoop=1;jettySize=auto;html=1;exitX=0.5;exitY=1;exitDx=0;exitDy=0;entryX=0.5;entryY=0;entryDx=0;entryDy=0;" parent="1" source="X6_SMgSs1xqBF5ooyhke-1" target="X6_SMgSs1xqBF5ooyhke-3" edge="1">
          <mxGeometry relative="1" as="geometry" />
        </mxCell>
        <mxCell id="X6_SMgSs1xqBF5ooyhke-1" value="LOG IN" style="rounded=1;whiteSpace=wrap;html=1;" parent="1" vertex="1">
          <mxGeometry x="720" y="200" width="120" height="60" as="geometry" />
        </mxCell>
        <mxCell id="X6_SMgSs1xqBF5ooyhke-55" style="edgeStyle=orthogonalEdgeStyle;rounded=0;orthogonalLoop=1;jettySize=auto;html=1;exitX=0.5;exitY=1;exitDx=0;exitDy=0;entryX=0.5;entryY=0;entryDx=0;entryDy=0;" parent="1" source="X6_SMgSs1xqBF5ooyhke-2" target="X6_SMgSs1xqBF5ooyhke-54" edge="1">
          <mxGeometry relative="1" as="geometry" />
        </mxCell>
        <mxCell id="X6_SMgSs1xqBF5ooyhke-2" value="Profil" style="rounded=1;whiteSpace=wrap;html=1;" parent="1" vertex="1">
          <mxGeometry x="430" y="400" width="120" height="60" as="geometry" />
        </mxCell>
        <mxCell id="X6_SMgSs1xqBF5ooyhke-3" value="Home" style="rounded=1;whiteSpace=wrap;html=1;" parent="1" vertex="1">
          <mxGeometry x="620" y="400" width="120" height="60" as="geometry" />
        </mxCell>
        <mxCell id="X6_SMgSs1xqBF5ooyhke-49" style="edgeStyle=orthogonalEdgeStyle;rounded=0;orthogonalLoop=1;jettySize=auto;html=1;exitX=1;exitY=0.5;exitDx=0;exitDy=0;" parent="1" source="X6_SMgSs1xqBF5ooyhke-4" target="X6_SMgSs1xqBF5ooyhke-47" edge="1">
          <mxGeometry relative="1" as="geometry" />
        </mxCell>
        <mxCell id="X6_SMgSs1xqBF5ooyhke-50" style="edgeStyle=orthogonalEdgeStyle;rounded=0;orthogonalLoop=1;jettySize=auto;html=1;exitX=0;exitY=0.5;exitDx=0;exitDy=0;entryX=1;entryY=0.5;entryDx=0;entryDy=0;" parent="1" source="X6_SMgSs1xqBF5ooyhke-4" target="X6_SMgSs1xqBF5ooyhke-48" edge="1">
          <mxGeometry relative="1" as="geometry">
            <mxPoint x="580" y="785" as="targetPoint" />
          </mxGeometry>
        </mxCell>
        <mxCell id="X6_SMgSs1xqBF5ooyhke-4" value="Home Mahasiswa" style="rounded=1;whiteSpace=wrap;html=1;" parent="1" vertex="1">
          <mxGeometry x="620" y="755" width="120" height="60" as="geometry" />
        </mxCell>
        <mxCell id="X6_SMgSs1xqBF5ooyhke-27" value="" style="endArrow=none;html=1;rounded=0;entryX=0.5;entryY=1;entryDx=0;entryDy=0;exitX=0.5;exitY=0;exitDx=0;exitDy=0;" parent="1" source="X6_SMgSs1xqBF5ooyhke-16" target="X6_SMgSs1xqBF5ooyhke-3" edge="1">
          <mxGeometry width="50" height="50" relative="1" as="geometry">
            <mxPoint x="690" y="710" as="sourcePoint" />
            <mxPoint x="740" y="660" as="targetPoint" />
          </mxGeometry>
        </mxCell>
        <mxCell id="X6_SMgSs1xqBF5ooyhke-29" value="" style="endArrow=none;html=1;rounded=0;entryX=0.5;entryY=1;entryDx=0;entryDy=0;exitX=0.5;exitY=0;exitDx=0;exitDy=0;" parent="1" target="X6_SMgSs1xqBF5ooyhke-3" edge="1">
          <mxGeometry width="50" height="50" relative="1" as="geometry">
            <mxPoint x="680" y="745" as="sourcePoint" />
            <mxPoint x="690" y="470" as="targetPoint" />
          </mxGeometry>
        </mxCell>
        <mxCell id="X6_SMgSs1xqBF5ooyhke-30" value="" style="endArrow=none;html=1;rounded=0;entryX=0.5;entryY=1;entryDx=0;entryDy=0;exitX=0.5;exitY=0;exitDx=0;exitDy=0;" parent="1" source="X6_SMgSs1xqBF5ooyhke-17" target="X6_SMgSs1xqBF5ooyhke-3" edge="1">
          <mxGeometry width="50" height="50" relative="1" as="geometry">
            <mxPoint x="690" y="650" as="sourcePoint" />
            <mxPoint x="690" y="470" as="targetPoint" />
          </mxGeometry>
        </mxCell>
        <mxCell id="X6_SMgSs1xqBF5ooyhke-32" value="" style="endArrow=none;html=1;rounded=0;entryX=0.5;entryY=1;entryDx=0;entryDy=0;exitX=0.5;exitY=0;exitDx=0;exitDy=0;" parent="1" source="X6_SMgSs1xqBF5ooyhke-16" target="X6_SMgSs1xqBF5ooyhke-3" edge="1">
          <mxGeometry width="50" height="50" relative="1" as="geometry">
            <mxPoint x="795" y="670" as="sourcePoint" />
            <mxPoint x="690" y="470" as="targetPoint" />
          </mxGeometry>
        </mxCell>
        <mxCell id="X6_SMgSs1xqBF5ooyhke-33" value="" style="endArrow=none;html=1;rounded=0;entryX=0.5;entryY=1;entryDx=0;entryDy=0;exitX=0.5;exitY=0;exitDx=0;exitDy=0;" parent="1" source="X6_SMgSs1xqBF5ooyhke-4" target="X6_SMgSs1xqBF5ooyhke-16" edge="1">
          <mxGeometry width="50" height="50" relative="1" as="geometry">
            <mxPoint x="680" y="835" as="sourcePoint" />
            <mxPoint x="680" y="535" as="targetPoint" />
          </mxGeometry>
        </mxCell>
        <mxCell id="X6_SMgSs1xqBF5ooyhke-76" style="edgeStyle=orthogonalEdgeStyle;rounded=0;orthogonalLoop=1;jettySize=auto;html=1;exitX=0;exitY=0.5;exitDx=0;exitDy=0;" parent="1" source="X6_SMgSs1xqBF5ooyhke-16" target="X6_SMgSs1xqBF5ooyhke-40" edge="1">
          <mxGeometry relative="1" as="geometry" />
        </mxCell>
        <mxCell id="X6_SMgSs1xqBF5ooyhke-16" value="Home Admin UKM" style="rounded=1;whiteSpace=wrap;html=1;" parent="1" vertex="1">
          <mxGeometry x="615" y="565" width="130" height="60" as="geometry" />
        </mxCell>
        <mxCell id="X6_SMgSs1xqBF5ooyhke-34" value="ACC/Tolak Misi" style="rounded=0;whiteSpace=wrap;html=1;" parent="1" vertex="1">
          <mxGeometry x="470" y="660" width="100" height="50" as="geometry" />
        </mxCell>
        <mxCell id="X6_SMgSs1xqBF5ooyhke-37" style="edgeStyle=orthogonalEdgeStyle;rounded=0;orthogonalLoop=1;jettySize=auto;html=1;exitX=0;exitY=0.5;exitDx=0;exitDy=0;" parent="1" source="X6_SMgSs1xqBF5ooyhke-17" target="X6_SMgSs1xqBF5ooyhke-34" edge="1">
          <mxGeometry relative="1" as="geometry" />
        </mxCell>
        <mxCell id="X6_SMgSs1xqBF5ooyhke-17" value="Home Dosen Wali" style="rounded=1;whiteSpace=wrap;html=1;" parent="1" vertex="1">
          <mxGeometry x="615" y="655" width="130" height="60" as="geometry" />
        </mxCell>
        <mxCell id="X6_SMgSs1xqBF5ooyhke-40" value="Menambahkan Misi Ke Guild" style="rounded=0;whiteSpace=wrap;html=1;" parent="1" vertex="1">
          <mxGeometry x="470" y="570" width="100" height="50" as="geometry" />
        </mxCell>
        <mxCell id="X6_SMgSs1xqBF5ooyhke-64" style="edgeStyle=orthogonalEdgeStyle;rounded=0;orthogonalLoop=1;jettySize=auto;html=1;exitX=0;exitY=1;exitDx=0;exitDy=0;entryX=0;entryY=0.5;entryDx=0;entryDy=0;" parent="1" source="X6_SMgSs1xqBF5ooyhke-45" target="X6_SMgSs1xqBF5ooyhke-58" edge="1">
          <mxGeometry relative="1" as="geometry" />
        </mxCell>
        <mxCell id="X6_SMgSs1xqBF5ooyhke-65" style="edgeStyle=orthogonalEdgeStyle;rounded=0;orthogonalLoop=1;jettySize=auto;html=1;exitX=0;exitY=1;exitDx=0;exitDy=0;entryX=0;entryY=0.5;entryDx=0;entryDy=0;" parent="1" source="X6_SMgSs1xqBF5ooyhke-45" target="X6_SMgSs1xqBF5ooyhke-59" edge="1">
          <mxGeometry relative="1" as="geometry" />
        </mxCell>
        <mxCell id="X6_SMgSs1xqBF5ooyhke-66" style="edgeStyle=orthogonalEdgeStyle;rounded=0;orthogonalLoop=1;jettySize=auto;html=1;exitX=0;exitY=1;exitDx=0;exitDy=0;entryX=0;entryY=0.5;entryDx=0;entryDy=0;" parent="1" source="X6_SMgSs1xqBF5ooyhke-45" target="X6_SMgSs1xqBF5ooyhke-60" edge="1">
          <mxGeometry relative="1" as="geometry" />
        </mxCell>
        <mxCell id="OZ1owtazslaUiDSq3sJV-2" style="edgeStyle=orthogonalEdgeStyle;rounded=0;orthogonalLoop=1;jettySize=auto;html=1;exitX=0;exitY=1;exitDx=0;exitDy=0;entryX=0;entryY=0.5;entryDx=0;entryDy=0;" parent="1" source="X6_SMgSs1xqBF5ooyhke-45" target="OZ1owtazslaUiDSq3sJV-1" edge="1">
          <mxGeometry relative="1" as="geometry" />
        </mxCell>
        <mxCell id="X6_SMgSs1xqBF5ooyhke-45" value="Misi" style="rounded=1;whiteSpace=wrap;html=1;" parent="1" vertex="1">
          <mxGeometry x="816" y="400" width="120" height="60" as="geometry" />
        </mxCell>
        <mxCell id="X6_SMgSs1xqBF5ooyhke-47" value="Papan Peringkat UKM" style="rounded=0;whiteSpace=wrap;html=1;" parent="1" vertex="1">
          <mxGeometry x="780" y="760" width="100" height="50" as="geometry" />
        </mxCell>
        <mxCell id="X6_SMgSs1xqBF5ooyhke-48" value="Narasi" style="rounded=0;whiteSpace=wrap;html=1;" parent="1" vertex="1">
          <mxGeometry x="480" y="760" width="100" height="50" as="geometry" />
        </mxCell>
        <mxCell id="X6_SMgSs1xqBF5ooyhke-53" value="" style="endArrow=classic;startArrow=classic;html=1;rounded=0;entryX=0;entryY=0.5;entryDx=0;entryDy=0;exitX=1;exitY=0.5;exitDx=0;exitDy=0;" parent="1" source="X6_SMgSs1xqBF5ooyhke-2" target="X6_SMgSs1xqBF5ooyhke-3" edge="1">
          <mxGeometry width="50" height="50" relative="1" as="geometry">
            <mxPoint x="750" y="440" as="sourcePoint" />
            <mxPoint x="810" y="440" as="targetPoint" />
          </mxGeometry>
        </mxCell>
        <mxCell id="X6_SMgSs1xqBF5ooyhke-54" value="View Profil" style="rounded=0;whiteSpace=wrap;html=1;" parent="1" vertex="1">
          <mxGeometry x="440" y="490" width="100" height="50" as="geometry" />
        </mxCell>
        <mxCell id="X6_SMgSs1xqBF5ooyhke-58" value="Tampilan Misi Dari UKM" style="rounded=0;whiteSpace=wrap;html=1;" parent="1" vertex="1">
          <mxGeometry x="846" y="470" width="120" height="60" as="geometry" />
        </mxCell>
        <mxCell id="X6_SMgSs1xqBF5ooyhke-59" value="Papan Peringkat UKM" style="rounded=0;whiteSpace=wrap;html=1;" parent="1" vertex="1">
          <mxGeometry x="846" y="540" width="120" height="60" as="geometry" />
        </mxCell>
        <mxCell id="X6_SMgSs1xqBF5ooyhke-60" value="Request Misi" style="rounded=0;whiteSpace=wrap;html=1;" parent="1" vertex="1">
          <mxGeometry x="856" y="680" width="90" height="60" as="geometry" />
        </mxCell>
        <mxCell id="X6_SMgSs1xqBF5ooyhke-91" style="edgeStyle=orthogonalEdgeStyle;rounded=0;orthogonalLoop=1;jettySize=auto;html=1;exitX=0.5;exitY=0.5;exitDx=0;exitDy=0;exitPerimeter=0;entryX=1;entryY=0.5;entryDx=0;entryDy=0;" parent="1" source="X6_SMgSs1xqBF5ooyhke-67" target="X6_SMgSs1xqBF5ooyhke-45" edge="1">
          <mxGeometry relative="1" as="geometry">
            <Array as="points">
              <mxPoint x="990" y="675" />
              <mxPoint x="990" y="430" />
            </Array>
          </mxGeometry>
        </mxCell>
        <mxCell id="X6_SMgSs1xqBF5ooyhke-92" style="edgeStyle=orthogonalEdgeStyle;rounded=0;orthogonalLoop=1;jettySize=auto;html=1;exitX=0.5;exitY=0.5;exitDx=0;exitDy=0;exitPerimeter=0;entryX=0.5;entryY=1;entryDx=0;entryDy=0;" parent="1" source="X6_SMgSs1xqBF5ooyhke-67" target="X6_SMgSs1xqBF5ooyhke-4" edge="1">
          <mxGeometry relative="1" as="geometry">
            <Array as="points">
              <mxPoint x="990" y="675" />
              <mxPoint x="990" y="840" />
              <mxPoint x="680" y="840" />
            </Array>
          </mxGeometry>
        </mxCell>
        <mxCell id="X6_SMgSs1xqBF5ooyhke-67" value="Mahasiswa" style="shape=umlActor;verticalLabelPosition=bottom;verticalAlign=top;html=1;outlineConnect=0;" parent="1" vertex="1">
          <mxGeometry x="1050" y="645" width="30" height="60" as="geometry" />
        </mxCell>
        <mxCell id="X6_SMgSs1xqBF5ooyhke-89" style="edgeStyle=orthogonalEdgeStyle;rounded=0;orthogonalLoop=1;jettySize=auto;html=1;exitX=0.5;exitY=0.5;exitDx=0;exitDy=0;exitPerimeter=0;entryX=0;entryY=0.5;entryDx=0;entryDy=0;" parent="1" source="X6_SMgSs1xqBF5ooyhke-69" target="X6_SMgSs1xqBF5ooyhke-34" edge="1">
          <mxGeometry relative="1" as="geometry" />
        </mxCell>
        <mxCell id="X6_SMgSs1xqBF5ooyhke-69" value="Dosen Wali" style="shape=umlActor;verticalLabelPosition=bottom;verticalAlign=top;html=1;outlineConnect=0;" parent="1" vertex="1">
          <mxGeometry x="360" y="655" width="30" height="60" as="geometry" />
        </mxCell>
        <mxCell id="X6_SMgSs1xqBF5ooyhke-90" style="edgeStyle=orthogonalEdgeStyle;rounded=0;orthogonalLoop=1;jettySize=auto;html=1;exitX=0.5;exitY=0.5;exitDx=0;exitDy=0;exitPerimeter=0;entryX=0;entryY=0.5;entryDx=0;entryDy=0;" parent="1" source="X6_SMgSs1xqBF5ooyhke-70" target="X6_SMgSs1xqBF5ooyhke-40" edge="1">
          <mxGeometry relative="1" as="geometry" />
        </mxCell>
        <mxCell id="X6_SMgSs1xqBF5ooyhke-70" value="Admin UKM" style="shape=umlActor;verticalLabelPosition=bottom;verticalAlign=top;html=1;outlineConnect=0;" parent="1" vertex="1">
          <mxGeometry x="350" y="565" width="30" height="60" as="geometry" />
        </mxCell>
        <mxCell id="X6_SMgSs1xqBF5ooyhke-75" value="" style="endArrow=classic;startArrow=classic;html=1;rounded=0;exitX=1;exitY=0.5;exitDx=0;exitDy=0;" parent="1" source="X6_SMgSs1xqBF5ooyhke-3" target="X6_SMgSs1xqBF5ooyhke-45" edge="1">
          <mxGeometry width="50" height="50" relative="1" as="geometry">
            <mxPoint x="400" y="440" as="sourcePoint" />
            <mxPoint x="440" y="440" as="targetPoint" />
          </mxGeometry>
        </mxCell>
        <mxCell id="X6_SMgSs1xqBF5ooyhke-85" style="edgeStyle=orthogonalEdgeStyle;rounded=0;orthogonalLoop=1;jettySize=auto;html=1;exitX=0.5;exitY=0.5;exitDx=0;exitDy=0;exitPerimeter=0;entryX=0;entryY=0.5;entryDx=0;entryDy=0;" parent="1" source="X6_SMgSs1xqBF5ooyhke-80" target="X6_SMgSs1xqBF5ooyhke-1" edge="1">
          <mxGeometry relative="1" as="geometry">
            <Array as="points">
              <mxPoint x="585" y="270" />
              <mxPoint x="585" y="230" />
            </Array>
          </mxGeometry>
        </mxCell>
        <mxCell id="X6_SMgSs1xqBF5ooyhke-86" style="edgeStyle=orthogonalEdgeStyle;rounded=0;orthogonalLoop=1;jettySize=auto;html=1;exitX=0.5;exitY=0.5;exitDx=0;exitDy=0;exitPerimeter=0;entryX=0.5;entryY=0;entryDx=0;entryDy=0;" parent="1" source="X6_SMgSs1xqBF5ooyhke-80" target="X6_SMgSs1xqBF5ooyhke-2" edge="1">
          <mxGeometry relative="1" as="geometry">
            <Array as="points">
              <mxPoint x="490" y="270" />
            </Array>
          </mxGeometry>
        </mxCell>
        <mxCell id="X6_SMgSs1xqBF5ooyhke-80" value="Users (Mahasisw,&amp;nbsp;&lt;span style=&quot;background-color: initial;&quot;&gt;Admin&lt;/span&gt;&lt;div&gt;&lt;span style=&quot;background-color: initial;&quot;&gt;UKM, Dosen Wali)&lt;/span&gt;&lt;/div&gt;" style="shape=umlActor;verticalLabelPosition=bottom;verticalAlign=top;html=1;outlineConnect=0;" parent="1" vertex="1">
          <mxGeometry x="395" y="240" width="30" height="60" as="geometry" />
        </mxCell>
        <mxCell id="OZ1owtazslaUiDSq3sJV-1" value="History Misi" style="rounded=0;whiteSpace=wrap;html=1;" parent="1" vertex="1">
          <mxGeometry x="846" y="610" width="120" height="60" as="geometry" />
        </mxCell>
      </root>
    </mxGraphModel>
  </diagram>
</mxfile>
